<svg xmlns="http://www.w3.org/2000/svg" xmlns:xlink="http://www.w3.org/1999/xlink" width="23.729" height="22.011" viewBox="0 0 23.729 22.011">
  <defs>
    <clipPath id="clip-path">
      <rect id="사각형_87" data-name="사각형 87" width="23.729" height="22.011" fill="none"/>
    </clipPath>
  </defs>
  <g id="그룹_46" data-name="그룹 46" transform="translate(0 0)">
    <g id="그룹_45" data-name="그룹 45" transform="translate(0 0)" clip-path="url(#clip-path)">
      <path id="패스_41" data-name="패스 41" d="M23.3,11.792h-2.56a.433.433,0,0,0-.433.433v9.353a.433.433,0,0,1-.433.433H15.861a.433.433,0,0,1-.433-.433V16.133a3.567,3.567,0,0,0-3.54-3.567,3.688,3.688,0,0,0-3.591,3.7v5.312a.433.433,0,0,1-.433.433H3.856a.433.433,0,0,1-.433-.433V12.225a.433.433,0,0,0-.433-.433H.433a.432.432,0,0,1-.3-.742L11.262.245a.866.866,0,0,1,1.206,0L23.6,11.05a.432.432,0,0,1-.3.742" transform="translate(0 0)" fill="#fff"/>
    </g>
  </g>
</svg>
