<svg id="그룹_22" data-name="그룹 22" xmlns="http://www.w3.org/2000/svg" xmlns:xlink="http://www.w3.org/1999/xlink" width="135.096" height="55.655" viewBox="0 0 135.096 55.655">
  <defs>
    <clipPath id="clip-path">
      <rect id="사각형_4" data-name="사각형 4" width="135.096" height="55.655" fill="none"/>
    </clipPath>
    <clipPath id="clip-path-3">
      <rect id="사각형_1" data-name="사각형 1" width="0.107" height="0.075" fill="none"/>
    </clipPath>
    <clipPath id="clip-path-4">
      <rect id="사각형_2" data-name="사각형 2" width="1.043" height="0.518" fill="none"/>
    </clipPath>
  </defs>
  <g id="그룹_9" data-name="그룹 9" clip-path="url(#clip-path)">
    <g id="그룹_8" data-name="그룹 8">
      <g id="그룹_7" data-name="그룹 7" clip-path="url(#clip-path)">
        <g id="그룹_3" data-name="그룹 3" transform="translate(67.495 17.204)" opacity="0.31">
          <g id="그룹_2" data-name="그룹 2">
            <g id="그룹_1" data-name="그룹 1" clip-path="url(#clip-path-3)">
              <path id="패스_1" data-name="패스 1" d="M240.211,61.276,240.1,61.2a.467.467,0,0,1,.066.038c.014.013.029.025.041.038" transform="translate(-240.103 -61.201)"/>
            </g>
          </g>
        </g>
        <g id="그룹_6" data-name="그룹 6" transform="translate(67.026 16.675)" opacity="0.31">
          <g id="그룹_5" data-name="그룹 5">
            <g id="그룹_4" data-name="그룹 4" clip-path="url(#clip-path-4)">
              <path id="패스_2" data-name="패스 2" d="M239.482,59.836c-.341-.185-.689-.358-1.044-.518a4.406,4.406,0,0,1,1.044.518" transform="translate(-238.438 -59.318)"/>
            </g>
          </g>
        </g>
        <path id="패스_3" data-name="패스 3" d="M240.293,57.5c0,.031,0,.061,0,.092V57.5Z" transform="translate(-172.744 -41.334)"/>
        <path id="패스_4" data-name="패스 4" d="M240.293,57.5v.092c0-.031,0-.061,0-.092Z" transform="translate(-172.744 -41.334)"/>
        <path id="패스_5" data-name="패스 5" d="M159.848,58.917a19.544,19.544,0,0,0-19.541,19.154c0,.131-.005.262-.005.393q0,.9.081,1.773a19.546,19.546,0,1,0,19.466-21.32M149.587,81.092a14.821,14.821,0,0,1-.226-2.41,10.384,10.384,0,1,1,.23,2.432c0-.007,0-.014,0-.022" transform="translate(-100.862 -42.355)" fill="#6c7bfa"/>
        <path id="패스_6" data-name="패스 6" d="M202.465,90.158a14.976,14.976,0,0,1-29.714,2.651,10.415,10.415,0,1,0-.23-2.432c0-.073,0-.145,0-.219a14.974,14.974,0,0,1,29.948,0" transform="translate(-124.022 -54.049)" fill="#4d6cef"/>
        <path id="패스_7" data-name="패스 7" d="M35.051,88.757a4.544,4.544,0,0,1-.8,2.584q-.46.53-.961,1.022c-.034.034-.068.068-.1.1A19.546,19.546,0,1,1,33.1,64.381c.014.013.029.025.041.038q.624.608,1.194,1.264A4.572,4.572,0,0,1,27.281,71.4c-.075-.072-.147-.147-.215-.224A10.4,10.4,0,0,0,9.481,76.154a16.19,16.19,0,0,0,0,4.584A10.4,10.4,0,0,0,27.053,85.73c.072-.083.149-.163.228-.24a4.572,4.572,0,0,1,7.77,3.267" transform="translate(0 -42.355)" fill="#6c7bfa"/>
        <path id="패스_8" data-name="패스 8" d="M59.3,77.03a4.572,4.572,0,0,1-7.77,3.267c-.075-.072-.147-.147-.215-.224A10.4,10.4,0,0,0,33.727,85.05,16.061,16.061,0,0,1,56.213,72.707s.005,0,.007,0c.355.16.7.334,1.044.518a.067.067,0,0,1,.018.011l.107.075A4.578,4.578,0,0,1,59.3,77.03" transform="translate(-24.246 -51.251)" fill="#4d6cef"/>
        <path id="패스_9" data-name="패스 9" d="M59.3,144.56a4.578,4.578,0,0,1-1.763,3.606c-.034.034-.068.068-.1.1s-.093.054-.142.079l-.007.005c-.346.188-.7.364-1.062.527,0,0,0,0-.007,0a16.061,16.061,0,0,1-22.486-12.343A10.4,10.4,0,0,0,51.3,141.533c.072-.083.149-.163.228-.24a4.572,4.572,0,0,1,7.77,3.267" transform="translate(-24.246 -98.159)" fill="#5b71f4"/>
        <path id="패스_10" data-name="패스 10" d="M101.3,153.375a4.578,4.578,0,0,1-1.763,3.606c-.079.064-.161.124-.246.181l-.007.005a4.409,4.409,0,0,1-1.062.527s0,0-.007,0a4.571,4.571,0,0,1-4.914-7.351c.072-.083.149-.163.228-.24a4.572,4.572,0,0,1,7.77,3.267" transform="translate(-66.25 -106.973)" fill="#3c65e5"/>
        <path id="패스_11" data-name="패스 11" d="M380.439,62.729V92.74c0,.09,0,.179-.008.267a4.6,4.6,0,0,1-9.031.972,4.327,4.327,0,0,1-.155-.88c0-.03-.006-.061-.008-.092-.006-.088-.008-.176-.008-.267V77.58a10.207,10.207,0,0,0-9.644-10.222l-.114-.005c-.216-.01-.431-.013-.648-.013s-.433,0-.649.013a10.4,10.4,0,0,0,.245,20.773c.133-.012.268-.018.4-.018s.27.006.4.018a4.612,4.612,0,0,1,1.217,8.893q-.8.067-1.62.067t-1.62-.067a19.164,19.164,0,0,1-3.635-.65,19.549,19.549,0,1,1,15.935-35.2,4.6,4.6,0,0,1,8.933,1.471c0,.031,0,.061,0,.092" transform="translate(-245.343 -41.689)" fill="#6c7bfa"/>
        <path id="패스_12" data-name="패스 12" d="M447.831,181.606v.266h.008c-.006-.088-.008-.176-.008-.266" transform="translate(-321.943 -130.556)" fill="#4d4d4d"/>
        <path id="패스_13" data-name="패스 13" d="M410.183,165.147c-.133.008-.268.01-.4.01s-.27,0-.4-.01c.133-.012.268-.018.4-.018s.27.006.4.018" transform="translate(-294.298 -118.71)"/>
        <path id="패스_14" data-name="패스 14" d="M409.8,91.244c-.216-.01-.431-.014-.648-.014s-.433,0-.649.014c.214-.014.431-.02.649-.02s.435.006.648.02" transform="translate(-293.672 -65.58)"/>
        <path id="패스_15" data-name="패스 15" d="M377.052,116.655a4.6,4.6,0,0,1-2.953,4.307,4.541,4.541,0,0,1-1.62.3,14.989,14.989,0,0,1-.648-29.964,10.4,10.4,0,0,0,.245,20.773c.133-.012.268-.018.4-.018s.27.006.4.018a4.594,4.594,0,0,1,4.169,4.587" transform="translate(-256.998 -65.631)" fill="#4d6cef"/>
        <path id="패스_16" data-name="패스 16" d="M403.689,169.734a4.6,4.6,0,0,1-2.953,4.307,4.555,4.555,0,0,1-3.241,0,4.612,4.612,0,0,1,1.217-8.893c.133-.012.268-.018.4-.018s.27.006.4.018a4.594,4.594,0,0,1,4.169,4.587" transform="translate(-283.635 -118.71)" fill="#3c65e5"/>
        <path id="패스_17" data-name="패스 17" d="M447.831,181.606c0,.09,0,.178.008.266h-.008Z" transform="translate(-321.943 -130.556)"/>
        <path id="패스_18" data-name="패스 18" d="M480.57,181.606v.266h-.008c.006-.088.008-.176.008-.266" transform="translate(-345.474 -130.556)"/>
        <path id="패스_19" data-name="패스 19" d="M303.167,4.506V51.2h-9.013V5.028a4.2,4.2,0,0,1-.031-.521,4.507,4.507,0,0,1,9.013,0Z" transform="translate(-211.443)" fill="#6c7bfa"/>
        <path id="패스_20" data-name="패스 20" d="M303.247,170.43a4.507,4.507,0,1,1-4.506-4.506,4.506,4.506,0,0,1,4.506,4.506" transform="translate(-211.523 -119.282)" fill="#4d6cef"/>
      </g>
    </g>
  </g>
</svg>
