<svg id="그룹_53" data-name="그룹 53" xmlns="http://www.w3.org/2000/svg" xmlns:xlink="http://www.w3.org/1999/xlink" width="23.222" height="22.701" viewBox="0 0 23.222 22.701">
  <defs>
    <clipPath id="clip-path">
      <rect id="사각형_94" data-name="사각형 94" width="23.222" height="22.701" fill="none"/>
    </clipPath>
    <clipPath id="clip-path-3">
      <rect id="사각형_92" data-name="사각형 92" width="21.054" height="21.054" fill="none"/>
    </clipPath>
  </defs>
  <g id="그룹_52" data-name="그룹 52" clip-path="url(#clip-path)">
    <g id="그룹_51" data-name="그룹 51" transform="translate(0 0)">
      <g id="그룹_50" data-name="그룹 50" clip-path="url(#clip-path)">
        <g id="그룹_49" data-name="그룹 49" transform="translate(1.345 0.855)" opacity="0.1">
          <g id="그룹_48" data-name="그룹 48">
            <g id="그룹_47" data-name="그룹 47" clip-path="url(#clip-path-3)">
              <path id="패스_42" data-name="패스 42" d="M1.227,11.307A10.527,10.527,0,1,0,11.753.78,10.526,10.526,0,0,0,1.227,11.307" transform="translate(-1.226 -0.779)" fill="#fff"/>
            </g>
          </g>
        </g>
        <path id="패스_43" data-name="패스 43" d="M11.71,10.125c.752-.538,1.122-.954,1.122-1.572,0-.864-.627-1.437-1.705-1.437A1.686,1.686,0,0,0,9.342,8.734H8.2A2.758,2.758,0,0,1,11.114,6.1c1.819,0,2.852,1.056,2.852,2.459a2.5,2.5,0,0,1-1.246,2.054,2.272,2.272,0,0,0-1.146,2.212h-1.1a2.77,2.77,0,0,1,1.235-2.695M10.228,14.66a.825.825,0,1,1,.82.831.81.81,0,0,1-.82-.831" transform="translate(0.792 0.589)" fill="#fff"/>
        <path id="패스_44" data-name="패스 44" d="M11.71,10.125c.752-.538,1.122-.954,1.122-1.572,0-.864-.627-1.437-1.705-1.437A1.686,1.686,0,0,0,9.342,8.734H8.2A2.758,2.758,0,0,1,11.114,6.1c1.819,0,2.852,1.056,2.852,2.459a2.5,2.5,0,0,1-1.246,2.054,2.272,2.272,0,0,0-1.146,2.212h-1.1A2.77,2.77,0,0,1,11.71,10.125ZM10.228,14.66a.825.825,0,1,1,.82.831A.81.81,0,0,1,10.228,14.66Z" transform="translate(0.792 0.589)" fill="none" stroke="#fff" stroke-width="0.1"/>
        <path id="패스_45" data-name="패스 45" d="M22.272,12.363A10.526,10.526,0,0,1,6.14,20.155a1.553,1.553,0,0,0-1.108-.239l-3.759.66a.446.446,0,0,1-.5-.591l1.306-3.6a1.548,1.548,0,0,0-.038-1.12,10.532,10.532,0,1,1,20.227-2.9Z" transform="translate(0.072 0.073)" fill="none" stroke="#fff" stroke-width="1.5"/>
      </g>
    </g>
  </g>
</svg>
