<svg xmlns="http://www.w3.org/2000/svg" xmlns:xlink="http://www.w3.org/1999/xlink" width="23.453" height="22.701" viewBox="0 0 23.453 22.701">
  <defs>
    <clipPath id="clip-path">
      <rect id="사각형_104" data-name="사각형 104" width="23.453" height="22.701" fill="none"/>
    </clipPath>
    <clipPath id="clip-path-2">
      <rect id="사각형_103" data-name="사각형 103" width="23.453" height="22.702" fill="none"/>
    </clipPath>
    <clipPath id="clip-path-3">
      <rect id="사각형_101" data-name="사각형 101" width="19.493" height="21.056" fill="none"/>
    </clipPath>
  </defs>
  <g id="그룹_74" data-name="그룹 74" transform="translate(0 0)">
    <g id="그룹_73" data-name="그룹 73" transform="translate(0 0)" clip-path="url(#clip-path)">
      <g id="그룹_72" data-name="그룹 72" transform="translate(0 -0.001)">
        <g id="그룹_71" data-name="그룹 71" clip-path="url(#clip-path-2)">
          <g id="그룹_70" data-name="그룹 70" transform="translate(3.791 0.823)" opacity="0.1">
            <g id="그룹_69" data-name="그룹 69">
              <g id="그룹_68" data-name="그룹 68" clip-path="url(#clip-path-3)">
                <path id="패스_54" data-name="패스 54" d="M20.665,21.806H5.742a2.284,2.284,0,0,1-2.285-2.285V3.036A2.285,2.285,0,0,1,5.742.75H20.665a2.285,2.285,0,0,1,2.285,2.286V19.522a2.285,2.285,0,0,1-2.285,2.285" transform="translate(-3.456 -0.75)" fill="#fff"/>
              </g>
            </g>
          </g>
          <path id="사각형_102" data-name="사각형 102" d="M2.083,0H19.725a2.083,2.083,0,0,1,2.083,2.083V18.972a2.084,2.084,0,0,1-2.084,2.084H2.084A2.084,2.084,0,0,1,0,18.972V2.083A2.083,2.083,0,0,1,2.083,0Z" transform="translate(0.823 0.823)" fill="none" stroke="#fff" stroke-width="1.5"/>
          <path id="패스_55" data-name="패스 55" d="M22.558,4.774H.75V3.035A2.284,2.284,0,0,1,3.035.75H20.273a2.284,2.284,0,0,1,2.285,2.285Z" transform="translate(0.073 0.073)" fill="#fff"/>
          <path id="패스_56" data-name="패스 56" d="M22.558,4.774H.75V3.035A2.284,2.284,0,0,1,3.035.75H20.273a2.284,2.284,0,0,1,2.285,2.285Z" transform="translate(0.073 0.073)" fill="none" stroke="#fff" stroke-width="1.5"/>
          <path id="패스_57" data-name="패스 57" d="M7.639,11.584l2.3,3.978a.573.573,0,1,0,.993-.573l-2.3-3.978a.573.573,0,1,0-.993.573" transform="translate(0.732 1.038)" fill="#fff"/>
          <path id="패스_58" data-name="패스 58" d="M14.147,9.827l-3.41,5.9a.572.572,0,1,1-.991-.572l3.409-5.9a.573.573,0,1,1,.993.573" transform="translate(0.935 0.868)" fill="#fff"/>
        </g>
      </g>
    </g>
  </g>
</svg>
