<svg id="그룹_36" data-name="그룹 36" xmlns="http://www.w3.org/2000/svg" xmlns:xlink="http://www.w3.org/1999/xlink" width="104.64" height="43.108" viewBox="0 0 104.64 43.108">
  <defs>
    <clipPath id="clip-path">
      <rect id="사각형_4" data-name="사각형 4" width="104.64" height="43.108" fill="none"/>
    </clipPath>
    <clipPath id="clip-path-3">
      <rect id="사각형_1" data-name="사각형 1" width="0.083" height="0.058" fill="none"/>
    </clipPath>
    <clipPath id="clip-path-4">
      <rect id="사각형_2" data-name="사각형 2" width="0.808" height="0.402" fill="none"/>
    </clipPath>
  </defs>
  <g id="그룹_9" data-name="그룹 9" clip-path="url(#clip-path)">
    <g id="그룹_8" data-name="그룹 8">
      <g id="그룹_7" data-name="그룹 7" clip-path="url(#clip-path)">
        <g id="그룹_3" data-name="그룹 3" transform="translate(52.278 13.325)" opacity="0.31">
          <g id="그룹_2" data-name="그룹 2">
            <g id="그룹_1" data-name="그룹 1" clip-path="url(#clip-path-3)">
              <path id="패스_1" data-name="패스 1" d="M240.186,61.259,240.1,61.2a.362.362,0,0,1,.051.029l.032.029" transform="translate(-240.103 -61.201)"/>
            </g>
          </g>
        </g>
        <g id="그룹_6" data-name="그룹 6" transform="translate(51.916 12.916)" opacity="0.31">
          <g id="그룹_5" data-name="그룹 5">
            <g id="그룹_4" data-name="그룹 4" clip-path="url(#clip-path-4)">
              <path id="패스_2" data-name="패스 2" d="M239.246,59.719c-.264-.143-.533-.278-.808-.4a3.413,3.413,0,0,1,.808.4" transform="translate(-238.438 -59.318)"/>
            </g>
          </g>
        </g>
        <path id="패스_3" data-name="패스 3" d="M240.293,57.5c0,.024,0,.047,0,.071V57.5Z" transform="translate(-187.972 -44.978)"/>
        <path id="패스_4" data-name="패스 4" d="M240.293,57.5v.071c0-.024,0-.047,0-.071Z" transform="translate(-187.972 -44.978)"/>
        <path id="패스_5" data-name="패스 5" d="M155.442,58.917a15.138,15.138,0,0,0-15.136,14.836c0,.1,0,.2,0,.3q0,.694.063,1.374a15.14,15.14,0,1,0,15.077-16.513m-7.948,17.176a11.482,11.482,0,0,1-.175-1.867,8.043,8.043,0,1,1,.178,1.884c0-.006,0-.011,0-.017" transform="translate(-109.754 -46.089)" fill="#6c7bfa"/>
        <path id="패스_6" data-name="패스 6" d="M195.713,86.782A11.6,11.6,0,0,1,172.7,88.835a8.067,8.067,0,1,0-.178-1.884c0-.057,0-.112,0-.169a11.6,11.6,0,0,1,23.2,0" transform="translate(-134.954 -58.814)" fill="#4d6cef"/>
        <path id="패스_7" data-name="패스 7" d="M27.149,82.03a3.519,3.519,0,0,1-.621,2q-.356.41-.744.792L25.7,84.9a15.14,15.14,0,1,1-.064-21.753c.011.01.022.019.032.029q.483.471.925.979a3.541,3.541,0,0,1-5.466,4.43c-.058-.056-.114-.114-.167-.174a8.056,8.056,0,0,0-13.62,3.854,12.54,12.54,0,0,0,0,3.55,8.058,8.058,0,0,0,13.611,3.867c.056-.064.115-.127.176-.186a3.541,3.541,0,0,1,6.019,2.531" transform="translate(0 -46.089)" fill="#6c7bfa"/>
        <path id="패스_8" data-name="패스 8" d="M53.533,75.737a3.541,3.541,0,0,1-6.019,2.531c-.058-.056-.114-.114-.167-.174a8.056,8.056,0,0,0-13.62,3.854,12.44,12.44,0,0,1,17.417-9.56s0,0,.005,0c.275.124.545.258.808.4a.052.052,0,0,1,.014.008l.083.058a3.546,3.546,0,0,1,1.478,2.878" transform="translate(-26.384 -55.769)" fill="#4d6cef"/>
        <path id="패스_9" data-name="패스 9" d="M53.533,142.752a3.546,3.546,0,0,1-1.365,2.793c-.026.026-.053.053-.081.079s-.072.042-.11.061l-.005,0c-.268.146-.543.282-.822.408,0,0,0,0-.005,0a12.44,12.44,0,0,1-17.417-9.56,8.058,8.058,0,0,0,13.611,3.867c.056-.064.115-.126.176-.186a3.541,3.541,0,0,1,6.019,2.531" transform="translate(-26.384 -106.812)" fill="#5b71f4"/>
        <path id="패스_10" data-name="패스 10" d="M99.239,152.344a3.546,3.546,0,0,1-1.365,2.793c-.061.05-.125.1-.19.14l-.005,0a3.415,3.415,0,0,1-.822.408s0,0-.005,0A3.541,3.541,0,0,1,93.044,150c.056-.064.115-.126.176-.186a3.541,3.541,0,0,1,6.019,2.531" transform="translate(-72.09 -116.403)" fill="#3c65e5"/>
        <path id="패스_11" data-name="패스 11" d="M371.611,61.661V84.906c0,.07,0,.138-.006.206a3.566,3.566,0,0,1-6.995.753,3.351,3.351,0,0,1-.12-.681c0-.023,0-.047-.006-.071,0-.068-.006-.137-.006-.206V73.164a7.906,7.906,0,0,0-7.47-7.918l-.088,0c-.167-.007-.334-.01-.5-.01s-.335,0-.5.01a8.056,8.056,0,0,0,.19,16.09c.1-.009.208-.014.313-.014s.209,0,.313.014a3.572,3.572,0,0,1,.942,6.888q-.621.052-1.255.052t-1.255-.052a14.844,14.844,0,0,1-2.815-.5A15.142,15.142,0,1,1,364.69,60.45a3.566,3.566,0,0,1,6.919,1.14c0,.024,0,.047,0,.071" transform="translate(-266.971 -45.364)" fill="#6c7bfa"/>
        <path id="패스_12" data-name="패스 12" d="M447.831,181.606v.206h.006c0-.068-.006-.137-.006-.206" transform="translate(-350.324 -142.065)" fill="#4d4d4d"/>
        <path id="패스_13" data-name="패스 13" d="M410,165.143c-.1.006-.208.008-.313.008s-.209,0-.313-.008c.1-.009.208-.014.313-.014s.209,0,.313.014" transform="translate(-320.242 -129.175)"/>
        <path id="패스_14" data-name="패스 14" d="M409.51,91.239c-.167-.008-.334-.011-.5-.011s-.336,0-.5.011c.165-.011.334-.015.5-.015s.337,0,.5.015" transform="translate(-319.56 -71.362)"/>
        <path id="패스_15" data-name="패스 15" d="M372.642,110.938a3.565,3.565,0,0,1-2.287,3.336,3.517,3.517,0,0,1-1.255.231,11.61,11.61,0,0,1-.5-23.209,8.056,8.056,0,0,0,.19,16.09c.1-.009.208-.014.313-.014s.209,0,.313.014a3.558,3.558,0,0,1,3.229,3.553" transform="translate(-279.653 -71.417)" fill="#4d6cef"/>
        <path id="패스_16" data-name="패스 16" d="M401.627,168.7a3.565,3.565,0,0,1-2.287,3.336,3.528,3.528,0,0,1-2.51,0,3.572,3.572,0,0,1,.943-6.888c.1-.009.208-.014.313-.014s.209,0,.313.014a3.558,3.558,0,0,1,3.229,3.553" transform="translate(-308.638 -129.175)" fill="#3c65e5"/>
        <path id="패스_17" data-name="패스 17" d="M447.831,181.606c0,.07,0,.138.006.206h-.006Z" transform="translate(-350.324 -142.065)"/>
        <path id="패스_18" data-name="패스 18" d="M480.568,181.606v.206h-.006c0-.068.006-.137.006-.206" transform="translate(-375.928 -142.065)"/>
        <path id="패스_19" data-name="패스 19" d="M301.128,3.49V39.655h-6.981V3.894a3.251,3.251,0,0,1-.024-.4,3.491,3.491,0,0,1,6.981,0Z" transform="translate(-230.083)" fill="#6c7bfa"/>
        <path id="패스_20" data-name="패스 20" d="M301.215,169.414a3.491,3.491,0,1,1-3.49-3.49,3.49,3.49,0,0,1,3.49,3.49" transform="translate(-230.17 -129.797)" fill="#4d6cef"/>
      </g>
    </g>
  </g>
</svg>
