<svg id="그룹_148" data-name="그룹 148" xmlns="http://www.w3.org/2000/svg" xmlns:xlink="http://www.w3.org/1999/xlink" width="28.62" height="24.627" viewBox="0 0 28.62 24.627">
  <defs>
    <clipPath id="clip-path">
      <rect id="사각형_131" data-name="사각형 131" width="28.62" height="24.627" fill="none"/>
    </clipPath>
  </defs>
  <g id="그룹_135" data-name="그룹 135" clip-path="url(#clip-path)">
    <path id="패스_91" data-name="패스 91" d="M28.62,2.552V16.578a2.553,2.553,0,0,1-2.552,2.555H7.148a1.853,1.853,0,0,0-1.314.544L1.067,24.444A.626.626,0,0,1,0,24V2.552A2.552,2.552,0,0,1,2.552,0H26.068A2.551,2.551,0,0,1,28.62,2.552" transform="translate(0 0)" fill="#6c7bfa"/>
    <path id="패스_92" data-name="패스 92" d="M20.16,6.171H4.94a1.256,1.256,0,0,1,0-2.512H20.16a1.256,1.256,0,0,1,0,2.512" transform="translate(1.76 1.748)" fill="#fff"/>
    <path id="패스_93" data-name="패스 93" d="M20.16,10.153H4.94a1.256,1.256,0,0,1,0-2.512H20.16a1.256,1.256,0,0,1,0,2.512" transform="translate(1.76 3.65)" fill="#fff"/>
  </g>
</svg>
