<svg id="그룹_24" data-name="그룹 24" xmlns="http://www.w3.org/2000/svg" xmlns:xlink="http://www.w3.org/1999/xlink" width="80.862" height="33.312" viewBox="0 0 80.862 33.312">
  <defs>
    <clipPath id="clip-path">
      <rect id="사각형_4" data-name="사각형 4" width="80.862" height="33.312" fill="none"/>
    </clipPath>
    <clipPath id="clip-path-3">
      <rect id="사각형_1" data-name="사각형 1" width="0.064" height="0.045" fill="none"/>
    </clipPath>
    <clipPath id="clip-path-4">
      <rect id="사각형_2" data-name="사각형 2" width="0.625" height="0.31" fill="none"/>
    </clipPath>
  </defs>
  <g id="그룹_9" data-name="그룹 9" transform="translate(0)" clip-path="url(#clip-path)">
    <g id="그룹_8" data-name="그룹 8">
      <g id="그룹_7" data-name="그룹 7" clip-path="url(#clip-path)">
        <g id="그룹_3" data-name="그룹 3" transform="translate(40.399 10.297)" opacity="0.31">
          <g id="그룹_2" data-name="그룹 2" transform="translate(0)">
            <g id="그룹_1" data-name="그룹 1" clip-path="url(#clip-path-3)">
              <path id="패스_1" data-name="패스 1" d="M240.167,61.246,240.1,61.2a.281.281,0,0,1,.04.023l.025.023" transform="translate(-240.103 -61.201)"/>
            </g>
          </g>
        </g>
        <g id="그룹_6" data-name="그룹 6" transform="translate(40.119 9.981)" opacity="0.31">
          <g id="그룹_5" data-name="그룹 5" transform="translate(0)">
            <g id="그룹_4" data-name="그룹 4" clip-path="url(#clip-path-4)">
              <path id="패스_2" data-name="패스 2" d="M239.063,59.628c-.2-.111-.412-.215-.625-.31a2.637,2.637,0,0,1,.625.31" transform="translate(-238.438 -59.318)"/>
            </g>
          </g>
        </g>
        <path id="패스_3" data-name="패스 3" d="M240.292,57.5c0,.019,0,.036,0,.055V57.5Z" transform="translate(-199.861 -47.823)"/>
        <path id="패스_4" data-name="패스 4" d="M240.292,57.5v.055c0-.019,0-.036,0-.055Z" transform="translate(-199.861 -47.823)"/>
        <path id="패스_5" data-name="패스 5" d="M152,58.917a11.7,11.7,0,0,0-11.7,11.464c0,.079,0,.157,0,.235q0,.536.048,1.062A11.7,11.7,0,1,0,152,58.917M145.86,72.19a8.87,8.87,0,0,1-.135-1.443,6.215,6.215,0,1,1,.137,1.456s0-.009,0-.013" transform="translate(-116.696 -49.004)" fill="#6c7bfa"/>
        <path id="패스_6" data-name="패스 6" d="M190.442,84.146a8.964,8.964,0,0,1-17.785,1.586,6.234,6.234,0,1,0-.137-1.456c0-.044,0-.087,0-.131a8.963,8.963,0,0,1,17.925,0" transform="translate(-143.49 -62.534)" fill="#4d6cef"/>
        <path id="패스_7" data-name="패스 7" d="M20.98,76.778a2.719,2.719,0,0,1-.48,1.547q-.275.317-.575.612L19.862,79a11.7,11.7,0,1,1-.049-16.81l.025.023q.374.364.715.757a2.736,2.736,0,0,1-4.224,3.423c-.045-.043-.088-.088-.129-.134A6.225,6.225,0,0,0,5.675,69.234a9.69,9.69,0,0,0,0,2.744,6.227,6.227,0,0,0,10.518,2.988c.043-.049.089-.1.136-.144a2.736,2.736,0,0,1,4.651,1.956" transform="translate(0 -49.004)" fill="#6c7bfa"/>
        <path id="패스_8" data-name="패스 8" d="M49.032,74.727a2.736,2.736,0,0,1-4.651,1.956c-.045-.043-.088-.088-.129-.134a6.225,6.225,0,0,0-10.525,2.978,9.613,9.613,0,0,1,13.459-7.388s0,0,0,0c.213.1.421.2.625.31l.011.006.064.045a2.74,2.74,0,0,1,1.142,2.224" transform="translate(-28.052 -59.297)" fill="#4d6cef"/>
        <path id="패스_9" data-name="패스 9" d="M49.032,141.341a2.74,2.74,0,0,1-1.055,2.159l-.062.061c-.028.016-.056.032-.085.047l0,0c-.207.113-.42.218-.636.316,0,0,0,0,0,0a9.613,9.613,0,0,1-13.459-7.388,6.227,6.227,0,0,0,10.518,2.988c.043-.049.089-.1.136-.144a2.736,2.736,0,0,1,4.651,1.956" transform="translate(-28.052 -113.567)" fill="#5b71f4"/>
        <path id="패스_10" data-name="패스 10" d="M97.629,151.539a2.74,2.74,0,0,1-1.055,2.159c-.047.039-.1.074-.147.108l0,0a2.638,2.638,0,0,1-.636.316s0,0,0,0a2.736,2.736,0,0,1-2.941-4.4c.043-.049.089-.1.136-.144a2.736,2.736,0,0,1,4.651,1.956" transform="translate(-76.649 -123.765)" fill="#3c65e5"/>
        <path id="패스_11" data-name="패스 11" d="M364.718,60.827V78.79c0,.054,0,.107,0,.16a2.756,2.756,0,0,1-5.405.582,2.588,2.588,0,0,1-.093-.526c0-.018,0-.036,0-.055,0-.053,0-.105,0-.16V69.716a6.11,6.11,0,0,0-5.772-6.118l-.068,0c-.129-.006-.258-.008-.388-.008s-.259,0-.388.008a6.225,6.225,0,0,0,.147,12.434c.08-.007.161-.011.242-.011s.162,0,.242.011a2.76,2.76,0,0,1,.728,5.323q-.48.04-.97.04t-.97-.04a11.471,11.471,0,0,1-2.176-.389,11.7,11.7,0,1,1,9.538-21.071,2.755,2.755,0,0,1,5.347.881c0,.019,0,.036,0,.055" transform="translate(-283.856 -48.234)" fill="#6c7bfa"/>
        <path id="패스_12" data-name="패스 12" d="M447.831,181.606v.16h0c0-.053,0-.105,0-.16" transform="translate(-372.481 -151.05)" fill="#4d4d4d"/>
        <path id="패스_13" data-name="패스 13" d="M409.859,165.14c-.08,0-.161.006-.242.006s-.162,0-.242-.006c.08-.007.161-.011.242-.011s.162,0,.242.011" transform="translate(-340.497 -137.345)"/>
        <path id="패스_14" data-name="패스 14" d="M409.281,91.236c-.129-.006-.258-.008-.388-.008s-.259,0-.388.008c.128-.008.258-.012.388-.012s.26,0,.388.012" transform="translate(-339.772 -75.875)"/>
        <path id="패스_15" data-name="패스 15" d="M369.2,106.474a2.755,2.755,0,0,1-1.767,2.578,2.718,2.718,0,0,1-.97.178,8.972,8.972,0,0,1-.388-17.935,6.225,6.225,0,0,0,.147,12.434c.08-.007.161-.011.242-.011s.162,0,.242.011a2.749,2.749,0,0,1,2.5,2.745" transform="translate(-297.341 -75.934)" fill="#4d6cef"/>
        <path id="패스_16" data-name="패스 16" d="M400.017,167.885a2.755,2.755,0,0,1-1.767,2.578,2.727,2.727,0,0,1-1.94,0,2.76,2.76,0,0,1,.728-5.323c.08-.007.161-.011.242-.011s.162,0,.242.011a2.749,2.749,0,0,1,2.5,2.745" transform="translate(-328.159 -137.345)" fill="#3c65e5"/>
        <path id="패스_17" data-name="패스 17" d="M447.831,181.606c0,.054,0,.107,0,.16h0Z" transform="translate(-372.481 -151.05)"/>
        <path id="패스_18" data-name="패스 18" d="M480.567,181.606v.16h0c0-.053,0-.105,0-.16" transform="translate(-399.705 -151.05)"/>
        <path id="패스_19" data-name="패스 19" d="M299.536,2.7V30.644h-5.395V3.009a2.511,2.511,0,0,1-.019-.312,2.7,2.7,0,0,1,5.395,0Z" transform="translate(-244.635)" fill="#6c7bfa"/>
        <path id="패스_20" data-name="패스 20" d="M299.629,168.621a2.7,2.7,0,1,1-2.7-2.7,2.7,2.7,0,0,1,2.7,2.7" transform="translate(-244.728 -138.006)" fill="#4d6cef"/>
      </g>
    </g>
  </g>
</svg>
