<svg width="12" height="12" viewBox="0 0 12 14" fill="none" xmlns="http://www.w3.org/2000/svg">
<path d="M6 12.8333C3.23858 12.8333 1 10.2217 1 7C1 3.77834 3.23858 1.16666 6 1.16666C8.76142 1.16666 11 3.77834 11 7C10.997 10.2202 8.76017 12.8298 6 12.8333ZM2 7.10033C2.02366 9.66772 3.82055 11.7306 6.02127 11.7168C8.22198 11.703 9.99977 9.6177 9.99977 7.05016C9.99977 4.48263 8.22198 2.39737 6.02127 2.3835C3.82055 2.36976 2.02366 4.43261 2 7V7.10033ZM6.5 9.91667H5.5V7.58333H3.5V6.41666H5.5V4.08333H6.5V6.41666H8.5V7.58333H6.5V9.91667Z" fill="#2E3A59"/>
</svg>
