<svg xmlns="http://www.w3.org/2000/svg" xmlns:xlink="http://www.w3.org/1999/xlink" width="31.51" height="21.235" viewBox="0 0 31.51 21.235">
  <defs>
    <clipPath id="clip-path">
      <rect id="사각형_32" data-name="사각형 32" width="31.51" height="21.235" fill="none"/>
    </clipPath>
  </defs>
  <g id="그룹_42" data-name="그룹 42" opacity="0.5">
    <g id="그룹_41" data-name="그룹 41" transform="translate(0 0)" clip-path="url(#clip-path)">
      <path id="패스_38" data-name="패스 38" d="M31.045,8.87a17.625,17.625,0,0,0-30.581,0,3.523,3.523,0,0,0,0,3.495,17.9,17.9,0,0,0,3.207,4.074A17.616,17.616,0,0,0,25.6,18.226a17.775,17.775,0,0,0,5.444-5.861,3.519,3.519,0,0,0,0-3.495m-15.29,8.648a6.9,6.9,0,1,1,6.9-6.9,6.9,6.9,0,0,1-6.9,6.9" transform="translate(0 0)" fill="#6c7bfa"/>
      <path id="패스_39" data-name="패스 39" d="M19.792,10.72A3.852,3.852,0,1,1,15.94,6.868a3.852,3.852,0,0,1,3.852,3.852" transform="translate(-0.185 -0.106)" fill="#6c7bfa"/>
    </g>
  </g>
</svg>
