<svg xmlns="http://www.w3.org/2000/svg" xmlns:xlink="http://www.w3.org/1999/xlink" width="22.635" height="21.286" viewBox="0 0 22.635 21.286">
  <defs>
    <clipPath id="clip-path">
      <rect id="사각형_126" data-name="사각형 126" width="21.286" height="22.635" fill="none"/>
    </clipPath>
  </defs>
  <g id="그룹_31" data-name="그룹 31" transform="translate(22.636) rotate(90)">
    <g id="그룹_30" data-name="그룹 30" transform="translate(0 0)" clip-path="url(#clip-path)">
      <path id="패스_27" data-name="패스 27" d="M18.94,11.3a8.3,8.3,0,0,0-.255-2.048.372.372,0,0,1,.172-.417L21.1,7.544a.377.377,0,0,0,.138-.515l-1.582-2.74a.377.377,0,0,0-.515-.138L16.9,5.443a.373.373,0,0,1-.449-.06A8.269,8.269,0,0,0,12.88,3.318.374.374,0,0,1,12.6,2.96V.377A.377.377,0,0,0,12.225,0H9.061a.377.377,0,0,0-.377.377V2.964a.371.371,0,0,1-.277.357A8.288,8.288,0,0,0,4.844,5.388a.373.373,0,0,1-.449.061l-2.247-1.3a.377.377,0,0,0-.515.138L.051,7.029a.377.377,0,0,0,.138.515l2.254,1.3a.371.371,0,0,1,.172.417,8.37,8.37,0,0,0,.006,4.106.371.371,0,0,1-.172.418L.189,15.092a.377.377,0,0,0-.138.515l1.582,2.74a.377.377,0,0,0,.515.138l2.266-1.308a.373.373,0,0,1,.448.06,8.282,8.282,0,0,0,3.545,2.048.373.373,0,0,1,.277.358v2.615a.377.377,0,0,0,.377.377h3.165a.377.377,0,0,0,.377-.377V19.647a.372.372,0,0,1,.278-.358,8.28,8.28,0,0,0,3.554-2.047.372.372,0,0,1,.448-.06l2.256,1.3a.377.377,0,0,0,.515-.138l1.582-2.74a.377.377,0,0,0-.138-.515l-2.247-1.3a.373.373,0,0,1-.172-.419A8.27,8.27,0,0,0,18.94,11.3M7.372,14.737A4.715,4.715,0,1,1,9.313,15.86a4.717,4.717,0,0,1-1.941-1.123" transform="translate(0 0)" fill="#6c7bfa"/>
    </g>
  </g>
</svg>
